<?xml version="1.0" encoding="UTF-8"?>
<svg id="Calque_2" data-name="Calque 2" xmlns="http://www.w3.org/2000/svg" viewBox="0 0 61.42 68.65">
  <defs>
    <style>
      .cls-1 {
        fill: #4ebcc2;
      }

      .cls-1, .cls-2 {
        stroke-width: 0px;
      }

      .cls-2 {
        fill: #67539e;
      }
    </style>
  </defs>
  <g id="Calque_1-2" data-name="Calque 1">
    <path class="cls-1" d="m31.65,24.62c-3.64-.52-7.02,2.01-7.54,5.65-.52,3.64,2.01,7.02,5.65,7.54s7.02-2.01,7.54-5.65-2.01-7.02-5.65-7.54Z"/>
    <path class="cls-2" d="m52.24,8.62c-12.08-11.63-31.3-11.49-43.2.41h0c-12.05,12.05-12.05,31.58,0,43.62l11.88,11.88c5.49,5.49,14.38,5.49,19.87,0l11.31-11.31c12.23-12.23,12.6-32.61.15-44.61Zm-16.97,38.28c-1.4.41-2.99.58-2.99.58-2.82.27-5.27-.27-7.09-.91-1.52-.54-3.21-.16-4.37.97l-1.08,1.05c-1.55,1.56-4.1,1.59-5.69.08-.53-.51-.89-1.12-1.09-1.78-.39-1.34-.09-2.84.91-3.93l.89-.96c1.13-1.22,1.51-2.98.88-4.52-.8-1.97-1.52-4.71-1.21-7.88.08-.8.31-2.49,1.11-4.45,2.41-5.89,7.94-9.9,14.58-10.19,6.34-.28,12.37,3.37,15.15,9.07,4.54,9.33-.5,20.08-10.02,22.88Z"/>
  </g>
</svg>